<?xml version="1.0" encoding="UTF-8" standalone="no"?>
<!DOCTYPE svg PUBLIC "-//W3C//DTD SVG 1.1//EN" "http://www.w3.org/Graphics/SVG/1.1/DTD/svg11.dtd">
<svg width="100%" height="100%" viewBox="0 0 2560 1440" version="1.1" xmlns="http://www.w3.org/2000/svg" xmlns:xlink="http://www.w3.org/1999/xlink" xml:space="preserve" xmlns:serif="http://www.serif.com/" style="fill-rule:evenodd;clip-rule:evenodd;stroke-linejoin:round;stroke-miterlimit:2;">
    <g>
        <g transform="matrix(0.36807,0,0,0.36807,696.794041,428.735264)">
            <g transform="matrix(998.173142,0,0,998.173142,-1410.194956,930)">
                <path d="M0.664,-0L0.492,-0L0.305,-0.301L0.241,-0.255L0.241,-0L0.09,-0L0.09,-0.714L0.241,-0.714L0.241,-0.387C0.251,-0.401 0.261,-0.415 0.271,-0.429C0.281,-0.443 0.291,-0.457 0.301,-0.471L0.494,-0.714L0.662,-0.714L0.413,-0.398L0.664,-0Z" style="fill:white;fill-rule:nonzero;"/>
            </g>
            <g transform="matrix(998.173142,0,0,998.173142,-747.345603,930)">
                <path d="M0.227,-0.546L0.227,-0L0.078,-0L0.078,-0.546L0.227,-0.546ZM0.153,-0.76C0.175,-0.76 0.194,-0.755 0.21,-0.744C0.226,-0.734 0.234,-0.715 0.234,-0.687C0.234,-0.659 0.226,-0.64 0.21,-0.63C0.194,-0.619 0.175,-0.614 0.153,-0.614C0.13,-0.614 0.111,-0.619 0.095,-0.63C0.08,-0.64 0.072,-0.659 0.072,-0.687C0.072,-0.715 0.08,-0.734 0.095,-0.744C0.111,-0.755 0.13,-0.76 0.153,-0.76Z" style="fill:white;fill-rule:nonzero;"/>
            </g>
            <g transform="matrix(998.173142,0,0,998.173142,-442.727335,930)">
                <path d="M0.574,-0.274C0.574,-0.228 0.568,-0.188 0.556,-0.153C0.544,-0.118 0.526,-0.088 0.503,-0.064C0.479,-0.039 0.451,-0.021 0.419,-0.009C0.386,0.004 0.349,0.01 0.308,0.01C0.27,0.01 0.234,0.004 0.202,-0.009C0.17,-0.021 0.142,-0.039 0.119,-0.064C0.095,-0.088 0.077,-0.118 0.064,-0.153C0.051,-0.188 0.045,-0.228 0.045,-0.274C0.045,-0.334 0.056,-0.386 0.077,-0.428C0.099,-0.47 0.129,-0.502 0.169,-0.523C0.209,-0.545 0.256,-0.556 0.311,-0.556C0.362,-0.556 0.407,-0.545 0.447,-0.523C0.487,-0.502 0.518,-0.47 0.54,-0.428C0.563,-0.386 0.574,-0.334 0.574,-0.274ZM0.197,-0.274C0.197,-0.238 0.201,-0.208 0.208,-0.184C0.216,-0.159 0.229,-0.141 0.245,-0.128C0.262,-0.116 0.283,-0.11 0.31,-0.11C0.336,-0.11 0.358,-0.116 0.374,-0.128C0.391,-0.141 0.403,-0.159 0.41,-0.184C0.418,-0.208 0.422,-0.238 0.422,-0.274C0.422,-0.31 0.418,-0.34 0.41,-0.364C0.403,-0.388 0.391,-0.406 0.374,-0.418C0.357,-0.43 0.336,-0.436 0.309,-0.436C0.27,-0.436 0.241,-0.423 0.223,-0.396C0.206,-0.368 0.197,-0.328 0.197,-0.274Z" style="fill:white;fill-rule:nonzero;"/>
            </g>
            <g transform="matrix(998.173142,0,0,998.173142,175.282209,930)">
                <path d="M0.459,-0.162C0.459,-0.125 0.45,-0.094 0.433,-0.068C0.415,-0.043 0.389,-0.023 0.355,-0.01C0.32,0.003 0.278,0.01 0.226,0.01C0.188,0.01 0.155,0.007 0.128,0.002C0.101,-0.002 0.074,-0.011 0.046,-0.022L0.046,-0.145C0.076,-0.132 0.107,-0.121 0.141,-0.112C0.175,-0.103 0.205,-0.099 0.231,-0.099C0.26,-0.099 0.281,-0.103 0.293,-0.112C0.306,-0.121 0.312,-0.132 0.312,-0.146C0.312,-0.155 0.309,-0.163 0.304,-0.171C0.299,-0.178 0.289,-0.186 0.272,-0.196C0.255,-0.205 0.229,-0.217 0.194,-0.232C0.16,-0.246 0.132,-0.261 0.11,-0.275C0.088,-0.29 0.071,-0.307 0.061,-0.327C0.05,-0.347 0.045,-0.373 0.045,-0.404C0.045,-0.454 0.065,-0.492 0.104,-0.518C0.143,-0.543 0.195,-0.556 0.261,-0.556C0.295,-0.556 0.327,-0.553 0.358,-0.546C0.389,-0.539 0.421,-0.528 0.453,-0.513L0.408,-0.406C0.381,-0.417 0.356,-0.427 0.332,-0.435C0.308,-0.442 0.284,-0.446 0.259,-0.446C0.237,-0.446 0.221,-0.443 0.209,-0.437C0.198,-0.431 0.193,-0.422 0.193,-0.41C0.193,-0.401 0.196,-0.394 0.201,-0.387C0.207,-0.38 0.218,-0.372 0.235,-0.364C0.251,-0.356 0.275,-0.345 0.307,-0.332C0.338,-0.319 0.365,-0.306 0.388,-0.292C0.41,-0.278 0.428,-0.261 0.44,-0.241C0.453,-0.221 0.459,-0.194 0.459,-0.162Z" style="fill:white;fill-rule:nonzero;"/>
            </g>
            <g transform="matrix(998.173142,0,0,998.173142,671.444444,930)">
                <path d="M0.227,-0.76L0.227,-0.42C0.227,-0.399 0.226,-0.379 0.225,-0.358C0.223,-0.338 0.221,-0.317 0.219,-0.297L0.221,-0.297C0.231,-0.311 0.242,-0.325 0.252,-0.339C0.263,-0.353 0.274,-0.367 0.286,-0.38L0.439,-0.546L0.607,-0.546L0.39,-0.309L0.62,-0L0.448,-0L0.291,-0.221L0.227,-0.17L0.227,-0L0.078,-0L0.078,-0.76L0.227,-0.76Z" style="fill:white;fill-rule:nonzero;"/>
            </g>
            <g transform="matrix(998.173142,0,0,998.173142,1290.428766,930)">
                <path d="M0.574,-0.274C0.574,-0.228 0.568,-0.188 0.556,-0.153C0.544,-0.118 0.526,-0.088 0.503,-0.064C0.479,-0.039 0.451,-0.021 0.419,-0.009C0.386,0.004 0.349,0.01 0.308,0.01C0.27,0.01 0.234,0.004 0.202,-0.009C0.17,-0.021 0.142,-0.039 0.119,-0.064C0.095,-0.088 0.077,-0.118 0.064,-0.153C0.051,-0.188 0.045,-0.228 0.045,-0.274C0.045,-0.334 0.056,-0.386 0.077,-0.428C0.099,-0.47 0.129,-0.502 0.169,-0.523C0.209,-0.545 0.256,-0.556 0.311,-0.556C0.362,-0.556 0.407,-0.545 0.447,-0.523C0.487,-0.502 0.518,-0.47 0.54,-0.428C0.563,-0.386 0.574,-0.334 0.574,-0.274ZM0.197,-0.274C0.197,-0.238 0.201,-0.208 0.208,-0.184C0.216,-0.159 0.229,-0.141 0.245,-0.128C0.262,-0.116 0.283,-0.11 0.31,-0.11C0.336,-0.11 0.358,-0.116 0.374,-0.128C0.391,-0.141 0.403,-0.159 0.41,-0.184C0.418,-0.208 0.422,-0.238 0.422,-0.274C0.422,-0.31 0.418,-0.34 0.41,-0.364C0.403,-0.388 0.391,-0.406 0.374,-0.418C0.357,-0.43 0.336,-0.436 0.309,-0.436C0.27,-0.436 0.241,-0.423 0.223,-0.396C0.206,-0.368 0.197,-0.328 0.197,-0.274Z" style="fill:white;fill-rule:nonzero;"/>
            </g>
            <g transform="matrix(998.173142,0,0,998.173142,1908.438309,930)">
                <path d="M0.459,-0.162C0.459,-0.125 0.45,-0.094 0.433,-0.068C0.415,-0.043 0.389,-0.023 0.355,-0.01C0.32,0.003 0.278,0.01 0.226,0.01C0.188,0.01 0.155,0.007 0.128,0.002C0.101,-0.002 0.074,-0.011 0.046,-0.022L0.046,-0.145C0.076,-0.132 0.107,-0.121 0.141,-0.112C0.175,-0.103 0.205,-0.099 0.231,-0.099C0.26,-0.099 0.281,-0.103 0.293,-0.112C0.306,-0.121 0.312,-0.132 0.312,-0.146C0.312,-0.155 0.309,-0.163 0.304,-0.171C0.299,-0.178 0.289,-0.186 0.272,-0.196C0.255,-0.205 0.229,-0.217 0.194,-0.232C0.16,-0.246 0.132,-0.261 0.11,-0.275C0.088,-0.29 0.071,-0.307 0.061,-0.327C0.05,-0.347 0.045,-0.373 0.045,-0.404C0.045,-0.454 0.065,-0.492 0.104,-0.518C0.143,-0.543 0.195,-0.556 0.261,-0.556C0.295,-0.556 0.327,-0.553 0.358,-0.546C0.389,-0.539 0.421,-0.528 0.453,-0.513L0.408,-0.406C0.381,-0.417 0.356,-0.427 0.332,-0.435C0.308,-0.442 0.284,-0.446 0.259,-0.446C0.237,-0.446 0.221,-0.443 0.209,-0.437C0.198,-0.431 0.193,-0.422 0.193,-0.41C0.193,-0.401 0.196,-0.394 0.201,-0.387C0.207,-0.38 0.218,-0.372 0.235,-0.364C0.251,-0.356 0.275,-0.345 0.307,-0.332C0.338,-0.319 0.365,-0.306 0.388,-0.292C0.41,-0.278 0.428,-0.261 0.44,-0.241C0.453,-0.221 0.459,-0.194 0.459,-0.162Z" style="fill:white;fill-rule:nonzero;"/>
            </g>
            <g transform="matrix(998.173142,0,0,998.173142,2404.600545,930)">
                <path d="M0.3,0.01C0.246,0.01 0.2,-0 0.162,-0.02C0.124,-0.039 0.095,-0.07 0.075,-0.111C0.055,-0.153 0.045,-0.206 0.045,-0.27C0.045,-0.337 0.056,-0.391 0.079,-0.433C0.101,-0.476 0.133,-0.507 0.173,-0.526C0.213,-0.546 0.26,-0.556 0.313,-0.556C0.351,-0.556 0.383,-0.552 0.411,-0.545C0.438,-0.538 0.462,-0.529 0.483,-0.519L0.439,-0.404C0.416,-0.413 0.394,-0.421 0.374,-0.427C0.353,-0.433 0.333,-0.436 0.313,-0.436C0.287,-0.436 0.265,-0.43 0.248,-0.418C0.231,-0.406 0.218,-0.387 0.209,-0.363C0.201,-0.338 0.197,-0.308 0.197,-0.271C0.197,-0.235 0.201,-0.205 0.21,-0.181C0.22,-0.157 0.233,-0.14 0.25,-0.128C0.267,-0.117 0.288,-0.111 0.313,-0.111C0.344,-0.111 0.371,-0.115 0.396,-0.123C0.42,-0.132 0.443,-0.143 0.466,-0.158L0.466,-0.031C0.443,-0.016 0.419,-0.006 0.394,0C0.369,0.007 0.338,0.01 0.3,0.01Z" style="fill:white;fill-rule:nonzero;"/>
            </g>
            <g transform="matrix(998.173142,0,0,998.173142,2917.821404,930)">
                <path d="M0.574,-0.274C0.574,-0.228 0.568,-0.188 0.556,-0.153C0.544,-0.118 0.526,-0.088 0.503,-0.064C0.479,-0.039 0.451,-0.021 0.419,-0.009C0.386,0.004 0.349,0.01 0.308,0.01C0.27,0.01 0.234,0.004 0.202,-0.009C0.17,-0.021 0.142,-0.039 0.119,-0.064C0.095,-0.088 0.077,-0.118 0.064,-0.153C0.051,-0.188 0.045,-0.228 0.045,-0.274C0.045,-0.334 0.056,-0.386 0.077,-0.428C0.099,-0.47 0.129,-0.502 0.169,-0.523C0.209,-0.545 0.256,-0.556 0.311,-0.556C0.362,-0.556 0.407,-0.545 0.447,-0.523C0.487,-0.502 0.518,-0.47 0.54,-0.428C0.563,-0.386 0.574,-0.334 0.574,-0.274ZM0.197,-0.274C0.197,-0.238 0.201,-0.208 0.208,-0.184C0.216,-0.159 0.229,-0.141 0.245,-0.128C0.262,-0.116 0.283,-0.11 0.31,-0.11C0.336,-0.11 0.358,-0.116 0.374,-0.128C0.391,-0.141 0.403,-0.159 0.41,-0.184C0.418,-0.208 0.422,-0.238 0.422,-0.274C0.422,-0.31 0.418,-0.34 0.41,-0.364C0.403,-0.388 0.391,-0.406 0.374,-0.418C0.357,-0.43 0.336,-0.436 0.309,-0.436C0.27,-0.436 0.241,-0.423 0.223,-0.396C0.206,-0.368 0.197,-0.328 0.197,-0.274Z" style="fill:white;fill-rule:nonzero;"/>
            </g>
            <g transform="matrix(998.173142,0,0,998.173142,3535.830948,930)">
                <path d="M0.382,-0.556C0.443,-0.556 0.493,-0.532 0.531,-0.484C0.569,-0.437 0.588,-0.366 0.588,-0.274C0.588,-0.212 0.579,-0.16 0.561,-0.118C0.543,-0.076 0.518,-0.044 0.487,-0.022C0.455,-0.001 0.419,0.01 0.378,0.01C0.352,0.01 0.329,0.006 0.31,-0C0.291,-0.007 0.275,-0.016 0.262,-0.026C0.248,-0.037 0.237,-0.048 0.227,-0.06L0.219,-0.06C0.222,-0.047 0.224,-0.034 0.225,-0.02C0.226,-0.006 0.227,0.007 0.227,0.02L0.227,0.24L0.078,0.24L0.078,-0.546L0.199,-0.546L0.22,-0.475L0.227,-0.475C0.237,-0.49 0.249,-0.503 0.263,-0.516C0.277,-0.528 0.294,-0.538 0.313,-0.545C0.333,-0.552 0.356,-0.556 0.382,-0.556ZM0.334,-0.437C0.308,-0.437 0.287,-0.432 0.272,-0.421C0.257,-0.41 0.246,-0.394 0.239,-0.373C0.232,-0.351 0.228,-0.324 0.227,-0.291L0.227,-0.275C0.227,-0.24 0.23,-0.21 0.237,-0.186C0.244,-0.161 0.255,-0.143 0.271,-0.13C0.287,-0.117 0.308,-0.111 0.336,-0.111C0.359,-0.111 0.377,-0.117 0.392,-0.13C0.407,-0.143 0.418,-0.161 0.425,-0.186C0.432,-0.21 0.436,-0.24 0.436,-0.276C0.436,-0.329 0.428,-0.369 0.411,-0.396C0.395,-0.424 0.369,-0.437 0.334,-0.437Z" style="fill:white;fill-rule:nonzero;"/>
            </g>
            <g transform="matrix(998.173142,0,0,998.173142,4167.487389,930)">
                <path d="M0.303,-0.556C0.354,-0.556 0.397,-0.546 0.434,-0.527C0.47,-0.508 0.498,-0.48 0.518,-0.443C0.538,-0.406 0.548,-0.361 0.548,-0.308L0.548,-0.236L0.196,-0.236C0.197,-0.194 0.21,-0.161 0.234,-0.137C0.257,-0.113 0.29,-0.101 0.332,-0.101C0.367,-0.101 0.399,-0.105 0.428,-0.112C0.457,-0.119 0.486,-0.13 0.517,-0.144L0.517,-0.029C0.49,-0.015 0.462,-0.006 0.432,0C0.403,0.007 0.367,0.01 0.325,0.01C0.271,0.01 0.222,-0 0.18,-0.021C0.138,-0.041 0.105,-0.071 0.081,-0.113C0.057,-0.154 0.045,-0.206 0.045,-0.269C0.045,-0.333 0.056,-0.386 0.077,-0.428C0.099,-0.471 0.129,-0.503 0.168,-0.524C0.207,-0.545 0.252,-0.556 0.303,-0.556ZM0.304,-0.45C0.275,-0.45 0.251,-0.441 0.232,-0.422C0.213,-0.404 0.202,-0.375 0.199,-0.335L0.408,-0.335C0.408,-0.357 0.404,-0.377 0.396,-0.394C0.389,-0.411 0.377,-0.425 0.362,-0.435C0.347,-0.445 0.328,-0.45 0.304,-0.45Z" style="fill:white;fill-rule:nonzero;"/>
            </g>
            <g transform="matrix(998.173142,0,0,998.173142,4757.228357,930)">
            </g>
            <g transform="matrix(998.173142,0,0,998.173142,-1410.194956,930)">
                <path d="M0.664,-0L0.492,-0L0.305,-0.301L0.241,-0.255L0.241,-0L0.09,-0L0.09,-0.714L0.241,-0.714L0.241,-0.387C0.251,-0.401 0.261,-0.415 0.271,-0.429C0.281,-0.443 0.291,-0.457 0.301,-0.471L0.494,-0.714L0.662,-0.714L0.413,-0.398L0.664,-0Z" style="fill:white;fill-rule:nonzero;"/>
            </g>
            <g transform="matrix(998.173142,0,0,998.173142,-747.345603,930)">
                <path d="M0.227,-0.546L0.227,-0L0.078,-0L0.078,-0.546L0.227,-0.546ZM0.153,-0.76C0.175,-0.76 0.194,-0.755 0.21,-0.744C0.226,-0.734 0.234,-0.715 0.234,-0.687C0.234,-0.659 0.226,-0.64 0.21,-0.63C0.194,-0.619 0.175,-0.614 0.153,-0.614C0.13,-0.614 0.111,-0.619 0.095,-0.63C0.08,-0.64 0.072,-0.659 0.072,-0.687C0.072,-0.715 0.08,-0.734 0.095,-0.744C0.111,-0.755 0.13,-0.76 0.153,-0.76Z" style="fill:white;fill-rule:nonzero;"/>
            </g>
            <g transform="matrix(998.173142,0,0,998.173142,-442.727335,930)">
                <path d="M0.574,-0.274C0.574,-0.228 0.568,-0.188 0.556,-0.153C0.544,-0.118 0.526,-0.088 0.503,-0.064C0.479,-0.039 0.451,-0.021 0.419,-0.009C0.386,0.004 0.349,0.01 0.308,0.01C0.27,0.01 0.234,0.004 0.202,-0.009C0.17,-0.021 0.142,-0.039 0.119,-0.064C0.095,-0.088 0.077,-0.118 0.064,-0.153C0.051,-0.188 0.045,-0.228 0.045,-0.274C0.045,-0.334 0.056,-0.386 0.077,-0.428C0.099,-0.47 0.129,-0.502 0.169,-0.523C0.209,-0.545 0.256,-0.556 0.311,-0.556C0.362,-0.556 0.407,-0.545 0.447,-0.523C0.487,-0.502 0.518,-0.47 0.54,-0.428C0.563,-0.386 0.574,-0.334 0.574,-0.274ZM0.197,-0.274C0.197,-0.238 0.201,-0.208 0.208,-0.184C0.216,-0.159 0.229,-0.141 0.245,-0.128C0.262,-0.116 0.283,-0.11 0.31,-0.11C0.336,-0.11 0.358,-0.116 0.374,-0.128C0.391,-0.141 0.403,-0.159 0.41,-0.184C0.418,-0.208 0.422,-0.238 0.422,-0.274C0.422,-0.31 0.418,-0.34 0.41,-0.364C0.403,-0.388 0.391,-0.406 0.374,-0.418C0.357,-0.43 0.336,-0.436 0.309,-0.436C0.27,-0.436 0.241,-0.423 0.223,-0.396C0.206,-0.368 0.197,-0.328 0.197,-0.274Z" style="fill:white;fill-rule:nonzero;"/>
            </g>
            <g transform="matrix(998.173142,0,0,998.173142,175.282209,930)">
                <path d="M0.459,-0.162C0.459,-0.125 0.45,-0.094 0.433,-0.068C0.415,-0.043 0.389,-0.023 0.355,-0.01C0.32,0.003 0.278,0.01 0.226,0.01C0.188,0.01 0.155,0.007 0.128,0.002C0.101,-0.002 0.074,-0.011 0.046,-0.022L0.046,-0.145C0.076,-0.132 0.107,-0.121 0.141,-0.112C0.175,-0.103 0.205,-0.099 0.231,-0.099C0.26,-0.099 0.281,-0.103 0.293,-0.112C0.306,-0.121 0.312,-0.132 0.312,-0.146C0.312,-0.155 0.309,-0.163 0.304,-0.171C0.299,-0.178 0.289,-0.186 0.272,-0.196C0.255,-0.205 0.229,-0.217 0.194,-0.232C0.16,-0.246 0.132,-0.261 0.11,-0.275C0.088,-0.29 0.071,-0.307 0.061,-0.327C0.05,-0.347 0.045,-0.373 0.045,-0.404C0.045,-0.454 0.065,-0.492 0.104,-0.518C0.143,-0.543 0.195,-0.556 0.261,-0.556C0.295,-0.556 0.327,-0.553 0.358,-0.546C0.389,-0.539 0.421,-0.528 0.453,-0.513L0.408,-0.406C0.381,-0.417 0.356,-0.427 0.332,-0.435C0.308,-0.442 0.284,-0.446 0.259,-0.446C0.237,-0.446 0.221,-0.443 0.209,-0.437C0.198,-0.431 0.193,-0.422 0.193,-0.41C0.193,-0.401 0.196,-0.394 0.201,-0.387C0.207,-0.38 0.218,-0.372 0.235,-0.364C0.251,-0.356 0.275,-0.345 0.307,-0.332C0.338,-0.319 0.365,-0.306 0.388,-0.292C0.41,-0.278 0.428,-0.261 0.44,-0.241C0.453,-0.221 0.459,-0.194 0.459,-0.162Z" style="fill:white;fill-rule:nonzero;"/>
            </g>
            <g transform="matrix(998.173142,0,0,998.173142,671.444444,930)">
                <path d="M0.227,-0.76L0.227,-0.42C0.227,-0.399 0.226,-0.379 0.225,-0.358C0.223,-0.338 0.221,-0.317 0.219,-0.297L0.221,-0.297C0.231,-0.311 0.242,-0.325 0.252,-0.339C0.263,-0.353 0.274,-0.367 0.286,-0.38L0.439,-0.546L0.607,-0.546L0.39,-0.309L0.62,-0L0.448,-0L0.291,-0.221L0.227,-0.17L0.227,-0L0.078,-0L0.078,-0.76L0.227,-0.76Z" style="fill:white;fill-rule:nonzero;"/>
            </g>
            <g transform="matrix(998.173142,0,0,998.173142,1290.428766,930)">
                <path d="M0.574,-0.274C0.574,-0.228 0.568,-0.188 0.556,-0.153C0.544,-0.118 0.526,-0.088 0.503,-0.064C0.479,-0.039 0.451,-0.021 0.419,-0.009C0.386,0.004 0.349,0.01 0.308,0.01C0.27,0.01 0.234,0.004 0.202,-0.009C0.17,-0.021 0.142,-0.039 0.119,-0.064C0.095,-0.088 0.077,-0.118 0.064,-0.153C0.051,-0.188 0.045,-0.228 0.045,-0.274C0.045,-0.334 0.056,-0.386 0.077,-0.428C0.099,-0.47 0.129,-0.502 0.169,-0.523C0.209,-0.545 0.256,-0.556 0.311,-0.556C0.362,-0.556 0.407,-0.545 0.447,-0.523C0.487,-0.502 0.518,-0.47 0.54,-0.428C0.563,-0.386 0.574,-0.334 0.574,-0.274ZM0.197,-0.274C0.197,-0.238 0.201,-0.208 0.208,-0.184C0.216,-0.159 0.229,-0.141 0.245,-0.128C0.262,-0.116 0.283,-0.11 0.31,-0.11C0.336,-0.11 0.358,-0.116 0.374,-0.128C0.391,-0.141 0.403,-0.159 0.41,-0.184C0.418,-0.208 0.422,-0.238 0.422,-0.274C0.422,-0.31 0.418,-0.34 0.41,-0.364C0.403,-0.388 0.391,-0.406 0.374,-0.418C0.357,-0.43 0.336,-0.436 0.309,-0.436C0.27,-0.436 0.241,-0.423 0.223,-0.396C0.206,-0.368 0.197,-0.328 0.197,-0.274Z" style="fill:white;fill-rule:nonzero;"/>
            </g>
            <g transform="matrix(998.173142,0,0,998.173142,1908.438309,930)">
                <path d="M0.459,-0.162C0.459,-0.125 0.45,-0.094 0.433,-0.068C0.415,-0.043 0.389,-0.023 0.355,-0.01C0.32,0.003 0.278,0.01 0.226,0.01C0.188,0.01 0.155,0.007 0.128,0.002C0.101,-0.002 0.074,-0.011 0.046,-0.022L0.046,-0.145C0.076,-0.132 0.107,-0.121 0.141,-0.112C0.175,-0.103 0.205,-0.099 0.231,-0.099C0.26,-0.099 0.281,-0.103 0.293,-0.112C0.306,-0.121 0.312,-0.132 0.312,-0.146C0.312,-0.155 0.309,-0.163 0.304,-0.171C0.299,-0.178 0.289,-0.186 0.272,-0.196C0.255,-0.205 0.229,-0.217 0.194,-0.232C0.16,-0.246 0.132,-0.261 0.11,-0.275C0.088,-0.29 0.071,-0.307 0.061,-0.327C0.05,-0.347 0.045,-0.373 0.045,-0.404C0.045,-0.454 0.065,-0.492 0.104,-0.518C0.143,-0.543 0.195,-0.556 0.261,-0.556C0.295,-0.556 0.327,-0.553 0.358,-0.546C0.389,-0.539 0.421,-0.528 0.453,-0.513L0.408,-0.406C0.381,-0.417 0.356,-0.427 0.332,-0.435C0.308,-0.442 0.284,-0.446 0.259,-0.446C0.237,-0.446 0.221,-0.443 0.209,-0.437C0.198,-0.431 0.193,-0.422 0.193,-0.41C0.193,-0.401 0.196,-0.394 0.201,-0.387C0.207,-0.38 0.218,-0.372 0.235,-0.364C0.251,-0.356 0.275,-0.345 0.307,-0.332C0.338,-0.319 0.365,-0.306 0.388,-0.292C0.41,-0.278 0.428,-0.261 0.44,-0.241C0.453,-0.221 0.459,-0.194 0.459,-0.162Z" style="fill:white;fill-rule:nonzero;"/>
            </g>
            <g transform="matrix(998.173142,0,0,998.173142,2404.600545,930)">
                <path d="M0.3,0.01C0.246,0.01 0.2,-0 0.162,-0.02C0.124,-0.039 0.095,-0.07 0.075,-0.111C0.055,-0.153 0.045,-0.206 0.045,-0.27C0.045,-0.337 0.056,-0.391 0.079,-0.433C0.101,-0.476 0.133,-0.507 0.173,-0.526C0.213,-0.546 0.26,-0.556 0.313,-0.556C0.351,-0.556 0.383,-0.552 0.411,-0.545C0.438,-0.538 0.462,-0.529 0.483,-0.519L0.439,-0.404C0.416,-0.413 0.394,-0.421 0.374,-0.427C0.353,-0.433 0.333,-0.436 0.313,-0.436C0.287,-0.436 0.265,-0.43 0.248,-0.418C0.231,-0.406 0.218,-0.387 0.209,-0.363C0.201,-0.338 0.197,-0.308 0.197,-0.271C0.197,-0.235 0.201,-0.205 0.21,-0.181C0.22,-0.157 0.233,-0.14 0.25,-0.128C0.267,-0.117 0.288,-0.111 0.313,-0.111C0.344,-0.111 0.371,-0.115 0.396,-0.123C0.42,-0.132 0.443,-0.143 0.466,-0.158L0.466,-0.031C0.443,-0.016 0.419,-0.006 0.394,0C0.369,0.007 0.338,0.01 0.3,0.01Z" style="fill:white;fill-rule:nonzero;"/>
            </g>
            <g transform="matrix(998.173142,0,0,998.173142,2917.821404,930)">
                <path d="M0.574,-0.274C0.574,-0.228 0.568,-0.188 0.556,-0.153C0.544,-0.118 0.526,-0.088 0.503,-0.064C0.479,-0.039 0.451,-0.021 0.419,-0.009C0.386,0.004 0.349,0.01 0.308,0.01C0.27,0.01 0.234,0.004 0.202,-0.009C0.17,-0.021 0.142,-0.039 0.119,-0.064C0.095,-0.088 0.077,-0.118 0.064,-0.153C0.051,-0.188 0.045,-0.228 0.045,-0.274C0.045,-0.334 0.056,-0.386 0.077,-0.428C0.099,-0.47 0.129,-0.502 0.169,-0.523C0.209,-0.545 0.256,-0.556 0.311,-0.556C0.362,-0.556 0.407,-0.545 0.447,-0.523C0.487,-0.502 0.518,-0.47 0.54,-0.428C0.563,-0.386 0.574,-0.334 0.574,-0.274ZM0.197,-0.274C0.197,-0.238 0.201,-0.208 0.208,-0.184C0.216,-0.159 0.229,-0.141 0.245,-0.128C0.262,-0.116 0.283,-0.11 0.31,-0.11C0.336,-0.11 0.358,-0.116 0.374,-0.128C0.391,-0.141 0.403,-0.159 0.41,-0.184C0.418,-0.208 0.422,-0.238 0.422,-0.274C0.422,-0.31 0.418,-0.34 0.41,-0.364C0.403,-0.388 0.391,-0.406 0.374,-0.418C0.357,-0.43 0.336,-0.436 0.309,-0.436C0.27,-0.436 0.241,-0.423 0.223,-0.396C0.206,-0.368 0.197,-0.328 0.197,-0.274Z" style="fill:white;fill-rule:nonzero;"/>
            </g>
            <g transform="matrix(998.173142,0,0,998.173142,3535.830948,930)">
                <path d="M0.382,-0.556C0.443,-0.556 0.493,-0.532 0.531,-0.484C0.569,-0.437 0.588,-0.366 0.588,-0.274C0.588,-0.212 0.579,-0.16 0.561,-0.118C0.543,-0.076 0.518,-0.044 0.487,-0.022C0.455,-0.001 0.419,0.01 0.378,0.01C0.352,0.01 0.329,0.006 0.31,-0C0.291,-0.007 0.275,-0.016 0.262,-0.026C0.248,-0.037 0.237,-0.048 0.227,-0.06L0.219,-0.06C0.222,-0.047 0.224,-0.034 0.225,-0.02C0.226,-0.006 0.227,0.007 0.227,0.02L0.227,0.24L0.078,0.24L0.078,-0.546L0.199,-0.546L0.22,-0.475L0.227,-0.475C0.237,-0.49 0.249,-0.503 0.263,-0.516C0.277,-0.528 0.294,-0.538 0.313,-0.545C0.333,-0.552 0.356,-0.556 0.382,-0.556ZM0.334,-0.437C0.308,-0.437 0.287,-0.432 0.272,-0.421C0.257,-0.41 0.246,-0.394 0.239,-0.373C0.232,-0.351 0.228,-0.324 0.227,-0.291L0.227,-0.275C0.227,-0.24 0.23,-0.21 0.237,-0.186C0.244,-0.161 0.255,-0.143 0.271,-0.13C0.287,-0.117 0.308,-0.111 0.336,-0.111C0.359,-0.111 0.377,-0.117 0.392,-0.13C0.407,-0.143 0.418,-0.161 0.425,-0.186C0.432,-0.21 0.436,-0.24 0.436,-0.276C0.436,-0.329 0.428,-0.369 0.411,-0.396C0.395,-0.424 0.369,-0.437 0.334,-0.437Z" style="fill:white;fill-rule:nonzero;"/>
            </g>
            <g transform="matrix(998.173142,0,0,998.173142,4167.487389,930)">
                <path d="M0.303,-0.556C0.354,-0.556 0.397,-0.546 0.434,-0.527C0.47,-0.508 0.498,-0.48 0.518,-0.443C0.538,-0.406 0.548,-0.361 0.548,-0.308L0.548,-0.236L0.196,-0.236C0.197,-0.194 0.21,-0.161 0.234,-0.137C0.257,-0.113 0.29,-0.101 0.332,-0.101C0.367,-0.101 0.399,-0.105 0.428,-0.112C0.457,-0.119 0.486,-0.13 0.517,-0.144L0.517,-0.029C0.49,-0.015 0.462,-0.006 0.432,0C0.403,0.007 0.367,0.01 0.325,0.01C0.271,0.01 0.222,-0 0.18,-0.021C0.138,-0.041 0.105,-0.071 0.081,-0.113C0.057,-0.154 0.045,-0.206 0.045,-0.269C0.045,-0.333 0.056,-0.386 0.077,-0.428C0.099,-0.471 0.129,-0.503 0.168,-0.524C0.207,-0.545 0.252,-0.556 0.303,-0.556ZM0.304,-0.45C0.275,-0.45 0.251,-0.441 0.232,-0.422C0.213,-0.404 0.202,-0.375 0.199,-0.335L0.408,-0.335C0.408,-0.357 0.404,-0.377 0.396,-0.394C0.389,-0.411 0.377,-0.425 0.362,-0.435C0.347,-0.445 0.328,-0.45 0.304,-0.45Z" style="fill:white;fill-rule:nonzero;"/>
            </g>
            <g transform="matrix(998.173142,0,0,998.173142,4757.228357,930)">
            </g>
        </g>
    </g>
</svg>
